# xmcd CD database file
#
# Track frame offsets:
#	182
#	13885
#	29410
#	40512
#	53857
#	65295
#	78482
#	92120
#	106952
#	116380
#
# Disc length: 1718 seconds
#
# Revision: 4
# Processed by: cddbd v1.5.1PL0 Copyright (c) Steve Scherf et al.
# Submitted via: CDex 1.51
#
DISCID=7706b40a
DTITLE=The Statler Brothers - The Statlers Greatest Hits
DYEAR=1988
DGENRE=Country
TTITLE0=Let's Get Started If We're Gonna Break My Heart
TTITLE1=Elizabeth
TTITLE2=Count On Me
TTITLE3=The Best I Know How
TTITLE4=Moon Pretty Moon
TTITLE5=More Than A Name On A Wall
TTITLE6=Guilty
TTITLE7=My Only Love
TTITLE8=I'll Be The One
TTITLE9=Atlanta Blue
EXTD=YEAR: 1988
EXTT0=
EXTT1=
EXTT2=
EXTT3=
EXTT4=
EXTT5=
EXTT6=
EXTT7=
EXTT8=
EXTT9=
PLAYORDER=
